<?xml version="1.0" standalone="no"?>
<!DOCTYPE svg PUBLIC "-//W3C//DTD SVG 20010904//EN"
 "http://www.w3.org/TR/2001/REC-SVG-20010904/DTD/svg10.dtd">
<svg version="1.0" xmlns="http://www.w3.org/2000/svg"
 width="1042.000000pt" height="1042.000000pt" viewBox="0 0 1042.000000 1042.000000"
 preserveAspectRatio="xMidYMid meet">
<metadata>
Created by potrace 1.14, written by Peter Selinger 2001-2017
</metadata>
<g transform="translate(0.000000,1042.000000) scale(0.100000,-0.100000)"
fill="#000000" stroke="none">
<path d="M4913 10410 c-1026 -61 -1993 -413 -2808 -1020 -216 -160 -370 -294
-575 -500 -206 -205 -340 -359 -500 -575 -757 -1016 -1115 -2272 -1009 -3540
131 -1568 965 -2991 2272 -3877 284 -192 676 -400 987 -523 485 -193 1013
-314 1539 -355 175 -13 610 -13 782 1 1130 89 2169 523 3025 1264 145 126 448
432 563 570 711 852 1124 1863 1210 2964 14 172 14 607 1 782 -41 526 -162
1052 -354 1539 -76 191 -253 550 -358 726 -231 385 -486 713 -798 1024 -875
876 -2006 1402 -3250 1510 -166 14 -562 20 -727 10z m387 -1474 c18 -48 59
-263 75 -396 13 -106 19 -281 26 -805 4 -368 10 -697 14 -730 3 -33 12 -161
20 -285 25 -355 86 -964 99 -978 2 -1 147 38 322 88 960 275 1687 426 2408
500 107 11 214 20 237 20 l40 0 -7 -152 c-3 -84 -8 -155 -10 -157 -7 -8 -301
-109 -534 -182 -348 -110 -686 -206 -1265 -360 -545 -145 -983 -263 -1061
-285 l-51 -15 9 -47 c163 -881 310 -1570 472 -2217 125 -500 164 -697 191
-971 l6 -61 -147 -122 c-81 -68 -153 -125 -160 -128 -28 -11 -175 305 -268
577 -78 226 -143 470 -281 1045 -180 756 -295 1291 -352 1643 -13 81 -22 112
-32 112 -8 0 -116 -32 -240 -71 -886 -278 -1790 -601 -2271 -811 -300 -132
-435 -178 -522 -178 -33 0 -38 3 -34 18 2 9 14 94 26 187 12 94 23 180 26 192
7 37 609 344 979 498 459 191 1173 451 1705 620 135 42 249 81 254 85 5 5 -3
102 -18 222 -74 613 -87 816 -93 1475 -7 791 13 1183 78 1551 10 55 14 63 38
68 14 4 82 21 151 39 153 41 158 41 170 11z m1638 -322 c375 -77 638 -413 693
-884 19 -171 -2 -368 -55 -516 -71 -193 -250 -386 -451 -485 -119 -58 -187
-72 -325 -67 -196 9 -341 70 -475 203 -125 123 -210 293 -252 501 -26 131 -23
385 5 519 29 136 55 214 108 320 161 328 432 475 752 409z m-3214 -1489 c78
-55 77 -49 21 -195 -44 -115 -104 -234 -181 -357 -35 -55 -64 -104 -64 -107 0
-3 37 -33 83 -67 156 -118 340 -284 388 -352 l20 -27 -76 -84 c-41 -46 -94
-98 -116 -115 l-40 -33 -69 21 c-131 40 -260 107 -391 203 -37 26 -69 48 -72
48 -3 0 -36 -53 -73 -117 -94 -164 -178 -288 -242 -356 l-55 -57 -46 26 c-25
15 -108 67 -183 118 -103 68 -138 96 -138 112 -1 71 123 337 255 547 l86 137
-82 93 c-45 50 -115 137 -156 192 -75 100 -178 291 -171 318 3 14 191 187 203
187 13 0 94 -61 151 -112 31 -29 109 -111 172 -183 62 -71 117 -131 120 -132
4 -1 22 20 41 48 66 97 222 269 312 344 l90 75 73 -63 c40 -35 103 -85 140
-112z m4113 -2411 l123 -75 0 -87 c0 -108 -21 -208 -103 -485 l-64 -217 96
-77 c116 -92 315 -289 361 -356 27 -42 31 -52 21 -70 -33 -61 -224 -317 -237
-317 -43 0 -273 135 -388 227 l-48 39 -44 -83 c-71 -135 -191 -303 -218 -303
-9 0 -259 141 -333 188 -27 16 45 265 139 480 l49 113 -58 65 c-232 258 -332
384 -414 523 l-47 77 110 117 c60 64 117 117 125 117 21 0 192 -136 358 -285
76 -69 143 -125 146 -125 4 0 11 10 15 22 4 13 52 117 107 233 54 115 114 243
133 283 18 39 37 72 40 72 4 0 63 -34 131 -76z m-3736 -639 c123 -33 228 -94
327 -189 221 -211 355 -554 339 -866 -14 -272 -109 -494 -287 -671 -71 -71
-102 -94 -181 -133 -125 -61 -189 -76 -325 -76 -391 0 -702 264 -810 687 -104
412 1 853 260 1090 141 129 309 187 516 178 58 -2 130 -11 161 -20z"/>
<path d="M6755 8103 c-97 -51 -174 -201 -225 -442 -22 -101 -22 -106 -5 -160
72 -236 251 -371 400 -302 125 58 194 214 195 437 0 223 -83 394 -223 460 -60
28 -100 30 -142 7z"/>
<path d="M3800 3598 c-102 -39 -187 -149 -225 -295 -24 -88 -21 -243 5 -342
55 -204 181 -319 361 -329 74 -4 84 -2 144 27 180 89 251 336 170 591 -94 297
-259 423 -455 348z"/>
</g>
</svg>
